<mxfile host="app.diagrams.net" agent="Mozilla/5.0 (Windows NT 10.0; Win64; x64; rv:136.0) Gecko/20100101 Firefox/136.0" version="26.1.2">
  <diagram name="Page-1" id="W48602Cb2akJcp2yeGL-">
    <mxGraphModel dx="1434" dy="774" grid="1" gridSize="10" guides="1" tooltips="1" connect="1" arrows="1" fold="1" page="1" pageScale="1" pageWidth="827" pageHeight="1169" math="0" shadow="0">
      <root>
        <mxCell id="0" />
        <mxCell id="1" parent="0" />
        <mxCell id="__VJjrAb0ZRpNXdg5YgJ-7" style="edgeStyle=orthogonalEdgeStyle;rounded=0;orthogonalLoop=1;jettySize=auto;html=1;exitX=0.5;exitY=1;exitDx=0;exitDy=0;entryX=0.5;entryY=0;entryDx=0;entryDy=0;" edge="1" parent="1" source="__VJjrAb0ZRpNXdg5YgJ-1" target="__VJjrAb0ZRpNXdg5YgJ-2">
          <mxGeometry relative="1" as="geometry" />
        </mxCell>
        <mxCell id="__VJjrAb0ZRpNXdg5YgJ-1" value="&lt;div&gt;program start, intro&lt;/div&gt;" style="rounded=0;whiteSpace=wrap;html=1;" vertex="1" parent="1">
          <mxGeometry x="40" y="50" width="120" height="60" as="geometry" />
        </mxCell>
        <mxCell id="__VJjrAb0ZRpNXdg5YgJ-8" style="edgeStyle=orthogonalEdgeStyle;rounded=0;orthogonalLoop=1;jettySize=auto;html=1;exitX=0.5;exitY=1;exitDx=0;exitDy=0;entryX=0;entryY=0.5;entryDx=0;entryDy=0;" edge="1" parent="1" source="__VJjrAb0ZRpNXdg5YgJ-2" target="__VJjrAb0ZRpNXdg5YgJ-3">
          <mxGeometry relative="1" as="geometry" />
        </mxCell>
        <mxCell id="__VJjrAb0ZRpNXdg5YgJ-9" style="edgeStyle=orthogonalEdgeStyle;rounded=0;orthogonalLoop=1;jettySize=auto;html=1;exitX=0.5;exitY=1;exitDx=0;exitDy=0;entryX=0;entryY=0.5;entryDx=0;entryDy=0;" edge="1" parent="1" source="__VJjrAb0ZRpNXdg5YgJ-2" target="__VJjrAb0ZRpNXdg5YgJ-4">
          <mxGeometry relative="1" as="geometry" />
        </mxCell>
        <mxCell id="__VJjrAb0ZRpNXdg5YgJ-10" style="edgeStyle=orthogonalEdgeStyle;rounded=0;orthogonalLoop=1;jettySize=auto;html=1;exitX=0.5;exitY=1;exitDx=0;exitDy=0;entryX=0;entryY=0.5;entryDx=0;entryDy=0;" edge="1" parent="1" source="__VJjrAb0ZRpNXdg5YgJ-2" target="__VJjrAb0ZRpNXdg5YgJ-5">
          <mxGeometry relative="1" as="geometry" />
        </mxCell>
        <mxCell id="__VJjrAb0ZRpNXdg5YgJ-2" value="first option selection scenario, ask process begins" style="rounded=0;whiteSpace=wrap;html=1;" vertex="1" parent="1">
          <mxGeometry x="40" y="160" width="120" height="60" as="geometry" />
        </mxCell>
        <mxCell id="__VJjrAb0ZRpNXdg5YgJ-19" style="edgeStyle=orthogonalEdgeStyle;rounded=0;orthogonalLoop=1;jettySize=auto;html=1;exitX=1;exitY=0.5;exitDx=0;exitDy=0;entryX=0;entryY=0.5;entryDx=0;entryDy=0;" edge="1" parent="1" source="__VJjrAb0ZRpNXdg5YgJ-3" target="__VJjrAb0ZRpNXdg5YgJ-11">
          <mxGeometry relative="1" as="geometry" />
        </mxCell>
        <mxCell id="__VJjrAb0ZRpNXdg5YgJ-20" style="edgeStyle=orthogonalEdgeStyle;rounded=0;orthogonalLoop=1;jettySize=auto;html=1;exitX=1;exitY=0.5;exitDx=0;exitDy=0;entryX=0;entryY=0.5;entryDx=0;entryDy=0;" edge="1" parent="1" source="__VJjrAb0ZRpNXdg5YgJ-3" target="__VJjrAb0ZRpNXdg5YgJ-12">
          <mxGeometry relative="1" as="geometry" />
        </mxCell>
        <mxCell id="__VJjrAb0ZRpNXdg5YgJ-21" style="edgeStyle=orthogonalEdgeStyle;rounded=0;orthogonalLoop=1;jettySize=auto;html=1;exitX=1;exitY=0.5;exitDx=0;exitDy=0;entryX=0;entryY=0.5;entryDx=0;entryDy=0;" edge="1" parent="1" source="__VJjrAb0ZRpNXdg5YgJ-3" target="__VJjrAb0ZRpNXdg5YgJ-13">
          <mxGeometry relative="1" as="geometry" />
        </mxCell>
        <mxCell id="__VJjrAb0ZRpNXdg5YgJ-3" value="option 1 selected, continuation of options" style="rounded=0;whiteSpace=wrap;html=1;" vertex="1" parent="1">
          <mxGeometry x="160" y="240" width="120" height="60" as="geometry" />
        </mxCell>
        <mxCell id="__VJjrAb0ZRpNXdg5YgJ-25" style="edgeStyle=orthogonalEdgeStyle;rounded=0;orthogonalLoop=1;jettySize=auto;html=1;exitX=1;exitY=0.5;exitDx=0;exitDy=0;entryX=0;entryY=0.5;entryDx=0;entryDy=0;" edge="1" parent="1" source="__VJjrAb0ZRpNXdg5YgJ-4" target="__VJjrAb0ZRpNXdg5YgJ-22">
          <mxGeometry relative="1" as="geometry">
            <Array as="points">
              <mxPoint x="460" y="340" />
              <mxPoint x="460" y="70" />
            </Array>
          </mxGeometry>
        </mxCell>
        <mxCell id="__VJjrAb0ZRpNXdg5YgJ-26" style="edgeStyle=orthogonalEdgeStyle;rounded=0;orthogonalLoop=1;jettySize=auto;html=1;exitX=1;exitY=0.5;exitDx=0;exitDy=0;entryX=0;entryY=0.5;entryDx=0;entryDy=0;" edge="1" parent="1" source="__VJjrAb0ZRpNXdg5YgJ-4" target="__VJjrAb0ZRpNXdg5YgJ-24">
          <mxGeometry relative="1" as="geometry">
            <Array as="points">
              <mxPoint x="460" y="340" />
              <mxPoint x="460" y="140" />
            </Array>
          </mxGeometry>
        </mxCell>
        <mxCell id="__VJjrAb0ZRpNXdg5YgJ-27" style="edgeStyle=orthogonalEdgeStyle;rounded=0;orthogonalLoop=1;jettySize=auto;html=1;exitX=1;exitY=0.5;exitDx=0;exitDy=0;entryX=0;entryY=0.5;entryDx=0;entryDy=0;" edge="1" parent="1" source="__VJjrAb0ZRpNXdg5YgJ-4" target="__VJjrAb0ZRpNXdg5YgJ-23">
          <mxGeometry relative="1" as="geometry">
            <Array as="points">
              <mxPoint x="460" y="340" />
              <mxPoint x="460" y="210" />
            </Array>
          </mxGeometry>
        </mxCell>
        <mxCell id="__VJjrAb0ZRpNXdg5YgJ-4" value="option 2 selected, continuation of options" style="rounded=0;whiteSpace=wrap;html=1;" vertex="1" parent="1">
          <mxGeometry x="160" y="310" width="120" height="60" as="geometry" />
        </mxCell>
        <mxCell id="__VJjrAb0ZRpNXdg5YgJ-37" style="edgeStyle=orthogonalEdgeStyle;rounded=0;orthogonalLoop=1;jettySize=auto;html=1;exitX=1;exitY=0.5;exitDx=0;exitDy=0;entryX=0;entryY=0.5;entryDx=0;entryDy=0;" edge="1" parent="1" source="__VJjrAb0ZRpNXdg5YgJ-5" target="__VJjrAb0ZRpNXdg5YgJ-34">
          <mxGeometry relative="1" as="geometry">
            <Array as="points">
              <mxPoint x="480" y="410" />
              <mxPoint x="480" y="310" />
            </Array>
          </mxGeometry>
        </mxCell>
        <mxCell id="__VJjrAb0ZRpNXdg5YgJ-38" style="edgeStyle=orthogonalEdgeStyle;rounded=0;orthogonalLoop=1;jettySize=auto;html=1;exitX=1;exitY=0.5;exitDx=0;exitDy=0;entryX=0;entryY=0.5;entryDx=0;entryDy=0;" edge="1" parent="1" source="__VJjrAb0ZRpNXdg5YgJ-5" target="__VJjrAb0ZRpNXdg5YgJ-35">
          <mxGeometry relative="1" as="geometry">
            <Array as="points">
              <mxPoint x="480" y="410" />
              <mxPoint x="480" y="380" />
            </Array>
          </mxGeometry>
        </mxCell>
        <mxCell id="__VJjrAb0ZRpNXdg5YgJ-39" style="edgeStyle=orthogonalEdgeStyle;rounded=0;orthogonalLoop=1;jettySize=auto;html=1;exitX=1;exitY=0.5;exitDx=0;exitDy=0;entryX=0;entryY=0.5;entryDx=0;entryDy=0;" edge="1" parent="1" source="__VJjrAb0ZRpNXdg5YgJ-5" target="__VJjrAb0ZRpNXdg5YgJ-36">
          <mxGeometry relative="1" as="geometry">
            <Array as="points">
              <mxPoint x="480" y="410" />
              <mxPoint x="480" y="450" />
            </Array>
          </mxGeometry>
        </mxCell>
        <mxCell id="__VJjrAb0ZRpNXdg5YgJ-5" value="option 3 selected, continuation of options" style="rounded=0;whiteSpace=wrap;html=1;" vertex="1" parent="1">
          <mxGeometry x="160" y="380" width="120" height="60" as="geometry" />
        </mxCell>
        <mxCell id="__VJjrAb0ZRpNXdg5YgJ-11" value="option 1 selected, ending" style="rounded=0;whiteSpace=wrap;html=1;" vertex="1" parent="1">
          <mxGeometry x="320" y="40" width="120" height="60" as="geometry" />
        </mxCell>
        <mxCell id="__VJjrAb0ZRpNXdg5YgJ-12" value="option 2 selected, ending" style="rounded=0;whiteSpace=wrap;html=1;" vertex="1" parent="1">
          <mxGeometry x="320" y="110" width="120" height="60" as="geometry" />
        </mxCell>
        <mxCell id="__VJjrAb0ZRpNXdg5YgJ-13" value="option 3 selected, ending" style="rounded=0;whiteSpace=wrap;html=1;" vertex="1" parent="1">
          <mxGeometry x="320" y="180" width="120" height="60" as="geometry" />
        </mxCell>
        <mxCell id="__VJjrAb0ZRpNXdg5YgJ-22" value="option 1 selected, ending" style="rounded=0;whiteSpace=wrap;html=1;" vertex="1" parent="1">
          <mxGeometry x="500" y="40" width="120" height="60" as="geometry" />
        </mxCell>
        <mxCell id="__VJjrAb0ZRpNXdg5YgJ-23" value="option 3 selected, ending" style="rounded=0;whiteSpace=wrap;html=1;" vertex="1" parent="1">
          <mxGeometry x="500" y="180" width="120" height="60" as="geometry" />
        </mxCell>
        <mxCell id="__VJjrAb0ZRpNXdg5YgJ-31" style="edgeStyle=orthogonalEdgeStyle;rounded=0;orthogonalLoop=1;jettySize=auto;html=1;exitX=1;exitY=0.5;exitDx=0;exitDy=0;entryX=0;entryY=0.5;entryDx=0;entryDy=0;" edge="1" parent="1" source="__VJjrAb0ZRpNXdg5YgJ-24" target="__VJjrAb0ZRpNXdg5YgJ-28">
          <mxGeometry relative="1" as="geometry" />
        </mxCell>
        <mxCell id="__VJjrAb0ZRpNXdg5YgJ-32" style="edgeStyle=orthogonalEdgeStyle;rounded=0;orthogonalLoop=1;jettySize=auto;html=1;exitX=1;exitY=0.5;exitDx=0;exitDy=0;entryX=0;entryY=0.5;entryDx=0;entryDy=0;" edge="1" parent="1" source="__VJjrAb0ZRpNXdg5YgJ-24" target="__VJjrAb0ZRpNXdg5YgJ-29">
          <mxGeometry relative="1" as="geometry" />
        </mxCell>
        <mxCell id="__VJjrAb0ZRpNXdg5YgJ-33" style="edgeStyle=orthogonalEdgeStyle;rounded=0;orthogonalLoop=1;jettySize=auto;html=1;exitX=1;exitY=0.5;exitDx=0;exitDy=0;entryX=0;entryY=0.5;entryDx=0;entryDy=0;" edge="1" parent="1" source="__VJjrAb0ZRpNXdg5YgJ-24" target="__VJjrAb0ZRpNXdg5YgJ-30">
          <mxGeometry relative="1" as="geometry" />
        </mxCell>
        <mxCell id="__VJjrAb0ZRpNXdg5YgJ-24" value="option 2 selected, continuation of options" style="rounded=0;whiteSpace=wrap;html=1;" vertex="1" parent="1">
          <mxGeometry x="500" y="110" width="120" height="60" as="geometry" />
        </mxCell>
        <mxCell id="__VJjrAb0ZRpNXdg5YgJ-28" value="option 1 selected, ending" style="rounded=0;whiteSpace=wrap;html=1;" vertex="1" parent="1">
          <mxGeometry x="680" y="40" width="120" height="60" as="geometry" />
        </mxCell>
        <mxCell id="__VJjrAb0ZRpNXdg5YgJ-29" value="option 2 selected, ending" style="rounded=0;whiteSpace=wrap;html=1;" vertex="1" parent="1">
          <mxGeometry x="680" y="110" width="120" height="60" as="geometry" />
        </mxCell>
        <mxCell id="__VJjrAb0ZRpNXdg5YgJ-30" value="option 3 selected, ending" style="rounded=0;whiteSpace=wrap;html=1;" vertex="1" parent="1">
          <mxGeometry x="680" y="180" width="120" height="60" as="geometry" />
        </mxCell>
        <mxCell id="__VJjrAb0ZRpNXdg5YgJ-34" value="option 1 selected, ending" style="rounded=0;whiteSpace=wrap;html=1;" vertex="1" parent="1">
          <mxGeometry x="500" y="280" width="120" height="60" as="geometry" />
        </mxCell>
        <mxCell id="__VJjrAb0ZRpNXdg5YgJ-35" value="option 2 selected, ending" style="rounded=0;whiteSpace=wrap;html=1;" vertex="1" parent="1">
          <mxGeometry x="500" y="350" width="120" height="60" as="geometry" />
        </mxCell>
        <mxCell id="__VJjrAb0ZRpNXdg5YgJ-43" style="edgeStyle=orthogonalEdgeStyle;rounded=0;orthogonalLoop=1;jettySize=auto;html=1;exitX=1;exitY=0.5;exitDx=0;exitDy=0;entryX=0;entryY=0.5;entryDx=0;entryDy=0;" edge="1" parent="1" source="__VJjrAb0ZRpNXdg5YgJ-36" target="__VJjrAb0ZRpNXdg5YgJ-40">
          <mxGeometry relative="1" as="geometry" />
        </mxCell>
        <mxCell id="__VJjrAb0ZRpNXdg5YgJ-44" style="edgeStyle=orthogonalEdgeStyle;rounded=0;orthogonalLoop=1;jettySize=auto;html=1;exitX=1;exitY=0.5;exitDx=0;exitDy=0;entryX=0;entryY=0.5;entryDx=0;entryDy=0;" edge="1" parent="1" source="__VJjrAb0ZRpNXdg5YgJ-36" target="__VJjrAb0ZRpNXdg5YgJ-41">
          <mxGeometry relative="1" as="geometry" />
        </mxCell>
        <mxCell id="__VJjrAb0ZRpNXdg5YgJ-45" style="edgeStyle=orthogonalEdgeStyle;rounded=0;orthogonalLoop=1;jettySize=auto;html=1;exitX=1;exitY=0.5;exitDx=0;exitDy=0;entryX=0;entryY=0.5;entryDx=0;entryDy=0;" edge="1" parent="1" source="__VJjrAb0ZRpNXdg5YgJ-36" target="__VJjrAb0ZRpNXdg5YgJ-42">
          <mxGeometry relative="1" as="geometry" />
        </mxCell>
        <mxCell id="__VJjrAb0ZRpNXdg5YgJ-36" value="option 3 selected, continuation of options" style="rounded=0;whiteSpace=wrap;html=1;" vertex="1" parent="1">
          <mxGeometry x="500" y="420" width="120" height="60" as="geometry" />
        </mxCell>
        <mxCell id="__VJjrAb0ZRpNXdg5YgJ-40" value="option 1 selected, ending" style="rounded=0;whiteSpace=wrap;html=1;" vertex="1" parent="1">
          <mxGeometry x="680" y="280" width="120" height="60" as="geometry" />
        </mxCell>
        <mxCell id="__VJjrAb0ZRpNXdg5YgJ-41" value="option 2 selected, ending" style="rounded=0;whiteSpace=wrap;html=1;" vertex="1" parent="1">
          <mxGeometry x="680" y="350" width="120" height="60" as="geometry" />
        </mxCell>
        <mxCell id="__VJjrAb0ZRpNXdg5YgJ-42" value="option 3 selected, ending" style="rounded=0;whiteSpace=wrap;html=1;" vertex="1" parent="1">
          <mxGeometry x="680" y="420" width="120" height="60" as="geometry" />
        </mxCell>
      </root>
    </mxGraphModel>
  </diagram>
</mxfile>
